<?xml version="1.0" encoding="UTF-8"?>
<svg xmlns="http://www.w3.org/2000/svg" xmlns:xlink="http://www.w3.org/1999/xlink" width="225px" height="314px" viewBox="0 0 225 314" version="1.1">
<g id="surface1">
<rect x="0" y="0" width="225" height="314" style="fill:rgb(100%,100%,100%);fill-opacity:1;stroke:none;"/>
<path style="fill:none;stroke-width:1;stroke-linecap:round;stroke-linejoin:round;stroke:rgb(0%,0%,0%);stroke-opacity:1;stroke-miterlimit:10;" d="M 683.998264 182.997512 C 686.586806 207.633012 687.060764 232.329469 688.069444 257.05205 C 706.930556 251.130474 719.059028 244.007166 733.399306 229.978254 C 739.585069 223.917347 747.350694 212.823099 740.557292 204.358728 C 736.340278 199.107683 727.213542 199.516969 721.149306 199.50826 C 701.303819 199.482136 682.114583 202.808668 662.998264 207.998756 " transform="matrix(0.321429,0,0,0.448571,-196.071429,-65.267143)"/>
<path style="fill:none;stroke-width:1;stroke-linecap:round;stroke-linejoin:round;stroke:rgb(0%,0%,0%);stroke-opacity:1;stroke-miterlimit:10;" d="M 812.003472 229.002936 C 807.045139 229.438346 801.807292 229.80409 797.079861 231.458648 C 793.713542 232.634256 792.206597 233.278662 789.848958 235.995621 C 786.105903 240.297472 787.782986 245.365645 789.970486 249.920034 C 796.836806 264.16665 826.671875 265.359674 821.592014 244.991192 C 820.717014 241.51662 818.590278 238.834494 816.366319 236.117536 " transform="matrix(0.321429,0,0,0.448571,-196.071429,-65.267143)"/>
<path style="fill:none;stroke-width:1;stroke-linecap:round;stroke-linejoin:round;stroke:rgb(0%,0%,0%);stroke-opacity:1;stroke-miterlimit:10;" d="M 918.996528 227.00005 C 914.876736 226.66043 910.744792 226.346935 906.600694 226.32081 C 902.262153 226.285977 896.039931 225.876692 892.467014 228.828772 C 886.28125 233.931777 890.984375 242.465814 894.909722 247.046328 C 901.010417 254.169636 909.699653 255.11883 916.857639 260.073796 C 922.131944 263.73124 914.888889 271.916949 911.401042 274.04175 C 908.496528 275.818223 905.519097 277.002538 902.322917 278.082355 " transform="matrix(0.321429,0,0,0.448571,-196.071429,-65.267143)"/>
<path style="fill:none;stroke-width:1;stroke-linecap:round;stroke-linejoin:round;stroke:rgb(0%,0%,0%);stroke-opacity:1;stroke-miterlimit:10;" d="M 676.001736 380.99587 C 677.59375 392.081409 679.100694 403.175657 680.413194 414.296029 " transform="matrix(0.321429,0,0,0.448571,-196.071429,-65.267143)"/>
<path style="fill:none;stroke-width:1;stroke-linecap:round;stroke-linejoin:round;stroke:rgb(1%,0%,0%);stroke-opacity:1;stroke-miterlimit:10;" d="M 661.005208 404.995671 C 679.987847 400.293242 700.684028 395.921726 720.371528 397.724323 C 726.690972 398.299064 736.291667 399.701085 740.897569 404.690884 C 748.602431 413.03334 745.114583 423.87505 736.826389 430.50199 C 723.385417 441.256618 704.560764 443.773288 687.923611 445.305932 C 683.293403 429.404757 683.475694 422.551403 682.005208 405.997114 " transform="matrix(0.321429,0,0,0.448571,-196.071429,-65.267143)"/>
<path style="fill:none;stroke-width:1;stroke-linecap:round;stroke-linejoin:round;stroke:rgb(0%,0%,0%);stroke-opacity:1;stroke-miterlimit:10;" d="M 788.001736 430.998358 C 794.782986 428.42073 801.564236 425.799562 808.065972 422.551403 C 810.15625 421.506419 813.109375 420.217605 814.288194 418.031847 C 820.777778 405.883907 800.105903 397.436953 791.489583 401.738804 C 780.029514 407.442675 780.612847 421.35838 787.442708 430.441033 C 792.887153 437.677548 801.637153 441.805235 809.9375 444.792148 " transform="matrix(0.321429,0,0,0.448571,-196.071429,-65.267143)"/>
<path style="fill:none;stroke-width:1;stroke-linecap:round;stroke-linejoin:round;stroke:rgb(0%,0%,0%);stroke-opacity:1;stroke-miterlimit:10;" d="M 983.005208 363.997462 C 985.703125 385.646049 987.586806 407.364301 989.373264 429.09997 " transform="matrix(0.321429,0,0,0.448571,-196.071429,-65.267143)"/>
<path style="fill:none;stroke-width:1;stroke-linecap:round;stroke-linejoin:round;stroke:rgb(0%,0%,0%);stroke-opacity:1;stroke-miterlimit:10;" d="M 1050.003472 370.998855 C 1076.059028 365.521397 1111.958333 364.955364 1122.567708 395.233778 C 1123.868056 398.943471 1124.329861 402.940535 1124.342014 406.850518 C 1124.366319 412.371517 1122.835069 417.927349 1120.307292 422.821357 C 1110.961806 440.890874 1088.309028 449.459743 1068.779514 445.985171 C 1058.559028 444.173865 1047.864583 439.950388 1045.361111 428.725518 C 1041.703125 412.40635 1060.345486 398.037818 1075.098958 399.48338 C 1087.105903 400.658987 1095.795139 410.08126 1102.831597 418.911375 C 1110.949653 429.404757 1118.848958 440.411923 1130.175347 447.752936 C 1160.472222 467.372512 1201.159722 467.0416 1233.996528 454.240545 " transform="matrix(0.321429,0,0,0.448571,-196.071429,-65.267143)"/>
<path style="fill:none;stroke-width:1;stroke-linecap:round;stroke-linejoin:round;stroke:rgb(0%,0%,0%);stroke-opacity:1;stroke-miterlimit:10;" d="M 707.003472 555.99587 C 685.991319 565.496517 663.994792 575.894108 654.515625 598.509305 C 653.045139 602.001294 651.659722 605.754528 651.258681 609.551304 C 647.928819 641.362361 691.581597 654.294039 716.434028 652.63948 " transform="matrix(0.321429,0,0,0.448571,-196.071429,-65.267143)"/>
<path style="fill:none;stroke-width:1;stroke-linecap:round;stroke-linejoin:round;stroke:rgb(0%,0%,0%);stroke-opacity:1;stroke-miterlimit:10;" d="M 760.001736 604.996915 C 776.736111 602.184166 796.800347 598.230643 813.097222 605.319118 C 835.215278 614.94168 834.717014 642.81663 817.435764 657.115496 C 806.510417 666.154608 789.508681 671.693023 775.581597 667.251841 C 769.541667 665.327329 762.019097 660.973229 761.375 653.928294 C 760.208333 641.144656 775.411458 635.501742 785.65625 635.379827 C 808.564236 635.118581 824.885417 652.308569 842.652778 664.003682 " transform="matrix(0.321429,0,0,0.448571,-196.071429,-65.267143)"/>
<path style="fill:none;stroke-width:1;stroke-linecap:round;stroke-linejoin:round;stroke:rgb(0%,0%,0%);stroke-opacity:1;stroke-miterlimit:10;" d="M 897.996528 596.001344 C 900.256944 603.237858 902.335069 610.509206 904.157986 617.876344 C 905.762153 624.355245 907.208333 630.877687 908.423611 637.44367 C 908.776042 639.376891 909.128472 641.371069 909.444444 643.312998 C 909.602431 644.288316 910.744792 646.804986 909.90625 646.256369 C 905.263889 643.191083 902.383681 632.471288 900.961806 627.333449 C 897.741319 615.71671 895.723958 601.435261 900.682292 590.001393 C 905.434028 579.072602 915.168403 569.510997 928.159722 572.201831 C 941.758681 575.01458 949.026042 588.338127 942.730903 601.139182 C 939.631944 607.435211 932.498264 610.805285 931.866319 618.337878 C 931.027778 628.30006 937.845486 636.47706 944.942708 642.572801 " transform="matrix(0.321429,0,0,0.448571,-196.071429,-65.267143)"/>
<path style="fill:none;stroke-width:1;stroke-linecap:round;stroke-linejoin:round;stroke:rgb(0%,0%,0%);stroke-opacity:1;stroke-miterlimit:10;" d="M 1002.996528 568.997213 C 1022.076389 562.291899 1041.557292 557.336933 1060.880208 551.441481 " transform="matrix(0.321429,0,0,0.448571,-196.071429,-65.267143)"/>
<path style="fill:none;stroke-width:1;stroke-linecap:round;stroke-linejoin:round;stroke:rgb(0%,0%,0%);stroke-opacity:1;stroke-miterlimit:10;" d="M 1041.994792 560.001642 C 1044.753472 579.342556 1047.633681 598.570263 1047.001736 618.155006 " transform="matrix(0.321429,0,0,0.448571,-196.071429,-65.267143)"/>
<path style="fill:none;stroke-width:1;stroke-linecap:round;stroke-linejoin:round;stroke:rgb(0%,0%,0%);stroke-opacity:1;stroke-miterlimit:10;" d="M 1100.996528 610.00413 C 1114.838542 608.210241 1129.227431 606.512142 1142.182292 600.991143 C 1146.885417 598.979548 1152.524306 596.628334 1155.842014 592.526771 C 1160.253472 587.06673 1157.798611 579.299015 1153.532986 574.631419 C 1146.569444 567.003035 1134.902778 564.677946 1125.204861 567.386196 C 1101.421875 574.030553 1090.435764 604.718252 1106.003472 624.207205 C 1118.022569 639.263684 1136.75 645.67292 1155.258681 648.163465 " transform="matrix(0.321429,0,0,0.448571,-196.071429,-65.267143)"/>
</g>
</svg>
