<svg width="225" height="314" viewBox="0 0 225 314" fill="none" xmlns="http://www.w3.org/2000/svg">
<g clip-path="url(#clip0_6_47)">
<path d="M225 0H0V314H225V0Z" fill="white"/>
<g clip-path="url(#clip1_6_47)">
<path d="M216 6H9V307H216V6Z" fill="#380516"/>
<path d="M211.515 9.74402H13.1091V302.88H211.515V9.74402Z" stroke="#A3835F" stroke-width="2" stroke-miterlimit="10"/>
<path d="M176.02 45.6824H48.2324V266.938H176.02V45.6824Z" stroke="#A3835F" stroke-width="2" stroke-miterlimit="10"/>
<path d="M112.931 17.2322L20.5825 155.612L112.931 295.768L205.538 155.612L112.931 17.2322Z" fill="#380516" stroke="#A3835F" stroke-width="2" stroke-miterlimit="10"/>
<path d="M112.931 47.1813L41.8794 155.612L112.931 263.57L186.106 155.612L112.931 47.1813Z" stroke="#A3835F" stroke-width="2" stroke-miterlimit="10"/>
<path d="M77.7316 134.076L60.3689 154.441L77.7316 175.656L95.0944 154.866L77.7316 134.076Z" fill="#A3835F" stroke="#A3835F" stroke-width="5" stroke-linecap="round" stroke-linejoin="round"/>
<path d="M147.179 141.924C129.645 130.045 118.807 154.652 147.179 171.625C175.552 154.652 164.714 130.045 147.179 141.924Z" fill="#A3835F" stroke="#A3835F" stroke-width="5" stroke-linecap="round" stroke-linejoin="round"/>
<path d="M112.352 75.099C94.897 94.8302 85.5679 111.375 108.434 110.317L106.951 116.682H117.75L116.267 110.317C139.133 111.379 129.804 94.8302 112.349 75.099H112.352Z" fill="#A3835F" stroke="#A3835F" stroke-width="5" stroke-linecap="round" stroke-linejoin="round"/>
<path d="M118.174 204.932C123.218 194.465 121.28 188.808 112.352 187.959C103.424 188.808 101.482 194.465 106.531 204.932C80.2748 198.142 93.6143 232.087 109.083 216.61C110.767 225.298 98.4842 228.691 112.355 228.691C126.226 228.691 113.944 225.298 115.627 216.61C131.096 232.084 144.433 198.142 118.18 204.932H118.174Z" fill="#A3835F" stroke="#A3835F" stroke-width="5" stroke-linecap="round" stroke-linejoin="round"/>
<path d="M138.579 63.1907C136.642 64.7218 134.616 66.1292 132.609 67.5703C133.855 68.3583 134.93 68.6815 136.668 68.7485C137.417 68.7777 138.649 68.6181 139.076 67.7423C139.342 67.2002 138.944 66.6795 138.701 66.3194C137.907 65.1421 136.865 64.1854 135.669 63.3431" stroke="#A3835F" stroke-linecap="round" stroke-linejoin="round"/>
<path d="M143.89 71.0007C143.333 70.3588 142.763 69.6684 141.989 69.2231C141.438 68.9033 141.168 68.7765 140.408 68.8054C139.204 68.8482 138.367 69.7586 137.679 70.6698C135.528 73.5274 138.13 77.8923 141.655 74.4735C142.256 73.8902 142.582 73.2336 142.903 72.5599" stroke="#A3835F" stroke-linecap="round" stroke-linejoin="round"/>
<path d="M147.163 75.7829C146.957 75.3878 146.749 74.9943 146.504 74.6218C146.249 74.2332 145.926 73.6449 145.344 73.5739C144.337 73.4504 143.561 74.5852 143.226 75.3184C142.707 76.4573 143.109 77.3116 142.926 78.3653C142.788 79.1406 141.335 79.1833 140.863 79.0514C140.467 78.9424 140.143 78.775 139.815 78.5829" stroke="#A3835F" stroke-linecap="round" stroke-linejoin="round"/>
<path d="M158.125 91.8059C156.103 93.4487 154.035 95.0385 151.962 96.6253" stroke="#A3835F" stroke-linecap="round" stroke-linejoin="round"/>
<path d="M166.877 104.84C165.574 104.268 164.181 103.686 162.379 104.246C162.101 104.333 161.807 104.434 161.543 104.585C159.329 105.85 159.871 108.501 160.775 109.607" stroke="#A3835F" stroke-linecap="round" stroke-linejoin="round"/>
<path d="M169.513 113.339C169.003 113.878 168.485 114.409 167.947 114.927C167.475 115.382 166.991 115.834 166.498 116.274C166.353 116.402 166.2 116.535 166.051 116.662C165.977 116.726 165.814 116.933 165.825 116.855C165.894 116.409 166.667 115.639 167.035 115.267C167.868 114.426 168.969 113.508 170.117 113.164C171.212 112.835 172.393 112.878 172.693 113.801C173.005 114.766 172.193 115.942 170.881 116.283C170.234 116.45 169.67 116.216 169.022 116.6C168.164 117.105 167.759 117.969 167.537 118.73" stroke="#A3835F" stroke-linecap="round" stroke-linejoin="round"/>
<path d="M172.454 116.639C174.039 117.549 175.466 118.604 176.98 119.585" stroke="#A3835F" stroke-linecap="round" stroke-linejoin="round"/>
<path d="M175.221 118.813C173.43 120.307 171.658 121.802 169.682 123.07" stroke="#A3835F" stroke-linecap="round" stroke-linejoin="round"/>
<path d="M150.307 80.578C148.37 82.1092 146.344 83.5165 144.337 84.9577C145.584 85.7456 146.658 86.0688 148.396 86.1358C149.145 86.165 150.377 86.0054 150.804 85.1296C151.07 84.5875 150.672 84.0669 150.429 83.7067C149.635 82.5294 148.593 81.5728 147.397 80.7305" stroke="#A3835F" stroke-linecap="round" stroke-linejoin="round"/>
<path d="M150.243 87.5439C150.875 88.1923 151.52 88.8754 152.398 89.2907C152.718 89.4411 153.096 89.6229 153.521 89.5951C154.086 89.5565 154.576 89.0341 154.772 88.5727C155.09 87.818 154.842 87.078 154.291 86.694C152.938 85.7591 150.254 86.7136 149.364 88.5264C148.675 89.9249 148.873 91.2491 149.352 92.3632" stroke="#A3835F" stroke-linecap="round" stroke-linejoin="round"/>
<path d="M158.802 93.8751C159.795 94.7942 161.04 95.8625 161.111 97.3627C161.209 99.3995 158.648 101.08 156.582 100.831C155.277 100.674 154.024 99.9026 153.815 98.7206C153.724 98.2075 153.789 97.4479 154.403 96.9735C155.518 96.111 156.7 96.7579 157.163 97.4196C158.195 98.8999 157.349 101.022 157.064 102.9" stroke="#A3835F" stroke-linecap="round" stroke-linejoin="round"/>
<path d="M167.107 106.186C168.099 107.105 169.344 108.174 169.415 109.674C169.513 111.711 166.952 113.391 164.886 113.142C163.581 112.985 162.329 112.214 162.119 111.032C162.028 110.519 162.094 109.759 162.707 109.285C163.822 108.422 165.004 109.069 165.467 109.731C166.499 111.211 165.653 113.333 165.368 115.212" stroke="#A3835F" stroke-linecap="round" stroke-linejoin="round"/>
<path d="M174.194 123.053C174.826 123.701 175.472 124.384 176.35 124.8C176.67 124.95 177.048 125.132 177.472 125.104C178.037 125.066 178.528 124.543 178.724 124.082C179.041 123.327 178.794 122.587 178.243 122.203C176.89 121.268 174.205 122.223 173.315 124.035C172.626 125.434 172.824 126.758 173.304 127.872" stroke="#A3835F" stroke-linecap="round" stroke-linejoin="round"/>
<path d="M85.1983 243.014C87.1347 241.482 89.1613 240.075 91.1684 238.634C89.9215 237.846 88.847 237.523 87.109 237.456C86.3605 237.427 85.128 237.586 84.701 238.462C84.4352 239.004 84.8334 239.525 85.0763 239.885C85.8705 241.062 86.9121 242.019 88.1083 242.861" stroke="#A3835F" stroke-linecap="round" stroke-linejoin="round"/>
<path d="M79.8866 235.204C80.4438 235.845 81.0136 236.536 81.7876 236.981C82.3392 237.301 82.6094 237.428 83.3692 237.399C84.573 237.356 85.4099 236.446 86.0985 235.534C88.2485 232.677 85.6469 228.312 82.1221 231.731C81.5213 232.314 81.1951 232.971 80.8736 233.644" stroke="#A3835F" stroke-linecap="round" stroke-linejoin="round"/>
<path d="M76.6139 230.421C76.8199 230.816 77.0282 231.21 77.2727 231.582C77.5282 231.971 77.8511 232.559 78.433 232.63C79.44 232.754 80.2162 231.619 80.5513 230.886C81.0695 229.747 80.6679 228.893 80.8506 227.839C80.9893 227.064 82.4418 227.021 82.9136 227.153C83.3096 227.262 83.6341 227.429 83.9618 227.621" stroke="#A3835F" stroke-linecap="round" stroke-linejoin="round"/>
<path d="M65.6515 214.398C67.6737 212.755 69.7419 211.166 71.8154 209.579" stroke="#A3835F" stroke-linecap="round" stroke-linejoin="round"/>
<path d="M56.9001 201.364C58.203 201.937 59.5963 202.518 61.3981 201.958C61.6757 201.871 61.9701 201.77 62.2342 201.619C64.4477 200.354 63.9059 197.704 63.0017 196.597" stroke="#A3835F" stroke-linecap="round" stroke-linejoin="round"/>
<path d="M54.2637 192.865C54.7736 192.326 55.2921 191.795 55.8299 191.278C56.3016 190.822 56.7865 190.37 57.2791 189.931C57.4244 189.802 57.5766 189.67 57.7257 189.542C57.8003 189.478 57.9629 189.271 57.9518 189.349C57.8831 189.795 57.1096 190.566 56.7424 190.938C55.909 191.778 54.8081 192.696 53.66 193.04C52.5651 193.369 51.384 193.326 51.084 192.403C50.7721 191.438 51.5844 190.262 52.8963 189.921C53.5425 189.754 54.1068 189.988 54.755 189.604C55.6134 189.099 56.018 188.235 56.2402 187.474" stroke="#A3835F" stroke-linecap="round" stroke-linejoin="round"/>
<path d="M51.3227 189.565C49.7384 188.656 48.3109 187.6 46.7965 186.619" stroke="#A3835F" stroke-linecap="round" stroke-linejoin="round"/>
<path d="M48.556 187.391C50.3466 185.897 52.1195 184.403 54.0951 183.134" stroke="#A3835F" stroke-linecap="round" stroke-linejoin="round"/>
<path d="M73.4702 225.626C75.4065 224.095 77.4332 222.688 79.4403 221.247C78.1934 220.459 77.1189 220.135 75.3808 220.068C74.6323 220.039 73.3998 220.199 72.9728 221.075C72.707 221.617 73.1053 222.137 73.3482 222.497C74.1423 223.675 75.1839 224.631 76.3802 225.474" stroke="#A3835F" stroke-linecap="round" stroke-linejoin="round"/>
<path d="M73.5344 218.66C72.9022 218.012 72.2567 217.329 71.3787 216.913C71.0589 216.763 70.681 216.581 70.2564 216.609C69.6913 216.648 69.2006 217.17 69.0046 217.631C68.6875 218.386 68.9347 219.126 69.4859 219.51C70.8387 220.445 73.5234 219.491 74.4134 217.678C75.1024 216.279 74.9045 214.955 74.425 213.841" stroke="#A3835F" stroke-linecap="round" stroke-linejoin="round"/>
<path d="M64.9746 212.329C63.9818 211.41 62.7372 210.342 62.6658 208.842C62.5682 206.805 65.1294 205.124 67.1951 205.373C68.5004 205.531 69.7526 206.302 69.9621 207.484C70.0529 207.997 69.9875 208.756 69.3738 209.231C68.2594 210.093 67.0774 209.446 66.6143 208.785C65.5822 207.304 66.4279 205.182 66.7128 203.304" stroke="#A3835F" stroke-linecap="round" stroke-linejoin="round"/>
<path d="M56.6704 200.018C55.6776 199.099 54.433 198.031 54.3616 196.53C54.264 194.494 56.8252 192.813 58.8909 193.062C60.1962 193.22 61.4484 193.99 61.6579 195.173C61.7487 195.686 61.6833 196.445 61.0696 196.92C59.9552 197.782 58.7732 197.135 58.3101 196.473C57.278 194.993 58.1237 192.871 58.4086 190.993" stroke="#A3835F" stroke-linecap="round" stroke-linejoin="round"/>
<path d="M49.5827 183.151C48.9506 182.503 48.3051 181.82 47.427 181.404C47.1072 181.254 46.7294 181.072 46.3048 181.1C45.7396 181.139 45.249 181.661 45.053 182.122C44.7358 182.877 44.9831 183.617 45.5343 184.001C46.887 184.936 49.5718 183.982 50.4617 182.169C51.1507 180.77 50.9528 179.446 50.4733 178.332" stroke="#A3835F" stroke-linecap="round" stroke-linejoin="round"/>
<path d="M43.184 129.781C45.3319 130.998 47.399 132.345 49.4902 133.662C49.7503 132.21 49.6449 131.093 49.0522 129.457C48.7972 128.753 48.185 127.672 47.2129 127.606C46.6106 127.564 46.2783 128.129 46.0363 128.49C45.2449 129.669 44.7512 130.994 44.4216 132.42" stroke="#A3835F" stroke-linecap="round" stroke-linejoin="round"/>
<path d="M48.4174 121.919C48.0328 122.677 47.6079 123.465 47.487 124.349C47.3986 124.981 47.383 125.279 47.6959 125.972C48.1891 127.071 49.3478 127.503 50.4513 127.797C53.9083 128.712 56.9714 124.658 52.4766 122.681C51.71 122.344 50.9788 122.29 50.2336 122.245" stroke="#A3835F" stroke-linecap="round" stroke-linejoin="round"/>
<path d="M51.6142 117.085C51.3259 117.425 51.0399 117.766 50.787 118.133C50.5232 118.516 50.0999 119.037 50.2534 119.603C50.5183 120.582 51.862 120.874 52.6674 120.908C53.9176 120.959 54.5577 120.265 55.6025 120.037C56.373 119.873 56.9597 121.203 57.0154 121.69C57.0635 122.098 57.0307 122.461 56.9763 122.837" stroke="#A3835F" stroke-linecap="round" stroke-linejoin="round"/>
<path d="M62.3267 100.894C64.6103 102.148 66.8621 103.465 69.1132 104.788" stroke="#A3835F" stroke-linecap="round" stroke-linejoin="round"/>
<path d="M71.1031 87.8772C71.064 89.2996 71.0501 90.8094 72.248 92.2674C72.4327 92.4919 72.6374 92.7265 72.877 92.9142C74.8824 94.4881 77.1337 92.9876 77.8179 91.7332" stroke="#A3835F" stroke-linecap="round" stroke-linejoin="round"/>
<path d="M77.9832 82.2328C78.6743 82.5022 79.3616 82.7823 80.0434 83.0856C80.6434 83.3508 81.2441 83.6299 81.8371 83.9206C82.0106 84.0069 82.1911 84.0978 82.3653 84.1879C82.4525 84.233 82.7056 84.3056 82.629 84.3247C82.1901 84.4291 81.1851 84.0028 80.7022 83.8028C79.6093 83.3476 78.3448 82.6734 77.5932 81.7397C76.8761 80.8493 76.471 79.739 77.2128 79.1134C77.9894 78.4609 79.3848 78.7703 80.1947 79.8571C80.5931 80.3928 80.5889 81.0036 81.1883 81.4596C81.9796 82.0644 82.9324 82.1137 83.7212 82.0328" stroke="#A3835F" stroke-linecap="round" stroke-linejoin="round"/>
<path d="M79.9315 78.2654C80.1773 76.4551 80.6174 74.735 80.955 72.9629" stroke="#A3835F" stroke-linecap="round" stroke-linejoin="round"/>
<path d="M80.9036 74.8834C82.9614 75.9795 85.014 77.0586 86.9336 78.4106" stroke="#A3835F" stroke-linecap="round" stroke-linejoin="round"/>
<path d="M54.8717 112.367C57.0195 113.584 59.0867 114.931 61.1778 116.247C61.438 114.795 61.3325 113.678 60.7398 112.043C60.4848 111.338 59.8726 110.257 58.9005 110.191C58.2983 110.149 57.966 110.714 57.7239 111.075C56.9325 112.254 56.4388 113.58 56.1092 115.005" stroke="#A3835F" stroke-linecap="round" stroke-linejoin="round"/>
<path d="M61.3484 109.802C61.7108 108.972 62.1004 108.117 62.1544 107.147C62.1732 106.794 62.1992 106.375 62.0135 105.993C61.7649 105.484 61.0961 105.226 60.5949 105.218C59.7763 105.209 59.1839 105.717 59.0359 106.372C58.6795 107.977 60.5751 110.105 62.5896 110.246C64.1447 110.357 65.2968 109.675 66.1482 108.811" stroke="#A3835F" stroke-linecap="round" stroke-linejoin="round"/>
<path d="M63.9883 99.4875C64.4656 98.2216 64.9863 96.6663 66.349 96.0349C68.199 95.1772 70.7206 96.9165 71.2681 98.9238C71.6141 100.192 71.3717 101.643 70.3557 102.282C69.9147 102.559 69.1865 102.785 68.5158 102.395C67.2969 101.688 67.4509 100.349 67.8894 99.671C68.8718 98.1572 71.1563 98.1411 73.0034 97.6974" stroke="#A3835F" stroke-linecap="round" stroke-linejoin="round"/>
<path d="M72.2638 87.157C72.7411 85.8912 73.2618 84.3358 74.6246 83.7045C76.4745 82.8467 78.9961 84.586 79.5437 86.5934C79.8896 87.8618 79.6472 89.3122 78.6312 89.9516C78.1902 90.229 77.462 90.4546 76.7913 90.0648C75.5725 89.3575 75.7264 88.0188 76.1649 87.3406C77.1473 85.8268 79.4318 85.8107 81.2789 85.3669" stroke="#A3835F" stroke-linecap="round" stroke-linejoin="round"/>
<path d="M85.2173 74.2372C85.5797 73.4073 85.9693 72.552 86.0233 71.5822C86.0421 71.2293 86.0681 70.8108 85.8824 70.4279C85.6338 69.919 84.965 69.6613 84.4638 69.6536C83.6452 69.6441 83.0528 70.152 82.9048 70.8072C82.5484 72.4125 84.444 74.5398 86.4585 74.6812C88.0136 74.7926 89.1656 74.1104 90.0171 73.2465" stroke="#A3835F" stroke-linecap="round" stroke-linejoin="round"/>
<path d="M181.2 183.537C179.053 182.32 176.985 180.973 174.894 179.657C174.634 181.108 174.74 182.225 175.332 183.861C175.587 184.565 176.2 185.647 177.172 185.712C177.774 185.754 178.106 185.189 178.348 184.828C179.14 183.649 179.633 182.324 179.963 180.899" stroke="#A3835F" stroke-linecap="round" stroke-linejoin="round"/>
<path d="M175.967 191.4C176.352 190.642 176.777 189.854 176.897 188.969C176.986 188.338 177.002 188.039 176.689 187.347C176.195 186.248 175.037 185.815 173.933 185.521C170.476 184.606 167.413 188.66 171.908 190.637C172.675 190.974 173.406 191.029 174.151 191.073" stroke="#A3835F" stroke-linecap="round" stroke-linejoin="round"/>
<path d="M172.77 196.233C173.059 195.893 173.345 195.552 173.598 195.185C173.861 194.802 174.285 194.281 174.131 193.715C173.866 192.736 172.523 192.445 171.717 192.411C170.467 192.36 169.827 193.053 168.782 193.281C168.012 193.445 167.425 192.115 167.369 191.629C167.321 191.221 167.354 190.857 167.408 190.481" stroke="#A3835F" stroke-linecap="round" stroke-linejoin="round"/>
<path d="M162.058 212.424C159.774 211.17 157.522 209.853 155.271 208.53" stroke="#A3835F" stroke-linecap="round" stroke-linejoin="round"/>
<path d="M153.281 225.441C153.321 224.019 153.334 222.509 152.137 221.051C151.952 220.826 151.747 220.592 151.508 220.404C149.502 218.83 147.251 220.331 146.567 221.585" stroke="#A3835F" stroke-linecap="round" stroke-linejoin="round"/>
<path d="M146.401 231.085C145.71 230.816 145.023 230.536 144.341 230.233C143.741 229.967 143.14 229.688 142.547 229.398C142.374 229.311 142.193 229.22 142.019 229.13C141.932 229.085 141.679 229.013 141.755 228.994C142.194 228.889 143.199 229.315 143.682 229.515C144.775 229.971 146.04 230.645 146.791 231.579C147.508 232.469 147.914 233.579 147.172 234.205C146.395 234.857 145 234.548 144.19 233.461C143.791 232.925 143.796 232.315 143.196 231.859C142.405 231.254 141.452 231.205 140.663 231.285" stroke="#A3835F" stroke-linecap="round" stroke-linejoin="round"/>
<path d="M144.453 235.053C144.207 236.863 143.767 238.583 143.43 240.355" stroke="#A3835F" stroke-linecap="round" stroke-linejoin="round"/>
<path d="M143.481 238.435C141.423 237.339 139.371 236.26 137.451 234.908" stroke="#A3835F" stroke-linecap="round" stroke-linejoin="round"/>
<path d="M169.513 200.951C167.365 199.735 165.298 198.387 163.207 197.071C162.947 198.523 163.052 199.64 163.645 201.275C163.9 201.98 164.512 203.061 165.484 203.127C166.086 203.169 166.419 202.604 166.661 202.243C167.452 201.064 167.946 199.739 168.275 198.313" stroke="#A3835F" stroke-linecap="round" stroke-linejoin="round"/>
<path d="M163.036 203.516C162.674 204.346 162.284 205.202 162.23 206.171C162.211 206.524 162.185 206.943 162.371 207.326C162.62 207.835 163.288 208.092 163.79 208.1C164.608 208.109 165.201 207.602 165.349 206.946C165.705 205.341 163.809 203.214 161.795 203.072C160.24 202.961 159.088 203.643 158.236 204.507" stroke="#A3835F" stroke-linecap="round" stroke-linejoin="round"/>
<path d="M160.396 213.831C159.919 215.097 159.398 216.652 158.035 217.283C156.185 218.141 153.664 216.402 153.116 214.394C152.77 213.126 153.013 211.676 154.029 211.036C154.47 210.759 155.198 210.533 155.869 210.923C157.088 211.63 156.934 212.969 156.495 213.647C155.513 215.161 153.228 215.177 151.381 215.621" stroke="#A3835F" stroke-linecap="round" stroke-linejoin="round"/>
<path d="M152.121 226.161C151.643 227.427 151.123 228.982 149.76 229.614C147.91 230.471 145.388 228.732 144.841 226.725C144.495 225.456 144.737 224.006 145.753 223.367C146.194 223.089 146.923 222.864 147.593 223.253C148.812 223.961 148.658 225.299 148.22 225.978C147.237 227.491 144.953 227.508 143.106 227.951" stroke="#A3835F" stroke-linecap="round" stroke-linejoin="round"/>
<path d="M139.167 239.081C138.805 239.911 138.415 240.766 138.361 241.736C138.342 242.089 138.316 242.507 138.502 242.89C138.751 243.399 139.42 243.657 139.921 243.665C140.739 243.674 141.332 243.166 141.48 242.511C141.836 240.906 139.94 238.778 137.926 238.637C136.371 238.526 135.219 239.208 134.367 240.072" stroke="#A3835F" stroke-linecap="round" stroke-linejoin="round"/>
</g>
</g>
<defs>
<clipPath id="clip0_6_47">
<rect width="225" height="314" fill="white"/>
</clipPath>
<clipPath id="clip1_6_47">
<rect width="207" height="301" fill="white" transform="translate(9 6)"/>
</clipPath>
</defs>
</svg>
